<svg width="200" height="140" viewBox="0 0 200 140" xmlns="http://www.w3.org/2000/svg">
  <rect width="200" height="140" fill="oklch(95.5% 0.012 82)"></rect>
  <g stroke="oklch(88% 0.02 78)" stroke-width="1">
    <line x1="-140" y1="140" x2="0" y2="0"></line><line x1="-122" y1="140" x2="18" y2="0"></line><line x1="-104" y1="140" x2="36" y2="0"></line><line x1="-86" y1="140" x2="54" y2="0"></line><line x1="-68" y1="140" x2="72" y2="0"></line><line x1="-50" y1="140" x2="90" y2="0"></line><line x1="-32" y1="140" x2="108" y2="0"></line><line x1="-14" y1="140" x2="126" y2="0"></line><line x1="4" y1="140" x2="144" y2="0"></line><line x1="22" y1="140" x2="162" y2="0"></line><line x1="40" y1="140" x2="180" y2="0"></line><line x1="58" y1="140" x2="198" y2="0"></line><line x1="76" y1="140" x2="216" y2="0"></line><line x1="94" y1="140" x2="234" y2="0"></line><line x1="112" y1="140" x2="252" y2="0"></line><line x1="130" y1="140" x2="270" y2="0"></line><line x1="148" y1="140" x2="288" y2="0"></line><line x1="166" y1="140" x2="306" y2="0"></line><line x1="184" y1="140" x2="324" y2="0"></line><line x1="202" y1="140" x2="342" y2="0"></line>
  </g>
</svg>